# xmcd
#
# Track frame offsets: 
#        150
#        20705
#        49420
#        53779
#        62269
#        75722
#        91168
#        96534
#        106116
#        114830
#        132886
#        144337
#        165865
#        174874
#        181650
#        191447
#        197241
#        208969
#        223909
#        229247
#        248716
#        261505
#        278426
#
# Disc length: 3800 seconds
#
# Revision: 0
# Processed by: cddbd v1.5.2PL0 Copyright (c) Steve Scherf et al.
# Submitted via: ExactAudioCopyFreeDBPlugin 1.0
#
DISCID=3e0ed617
DTITLE=Sly5thAve - The Invisible Man: An Orchestral Tribute To Dr. Dre
DYEAR=2017
DGENRE=Hip Hop
TTITLE0=Shiznit
TTITLE1=California Love
TTITLE2=Drelude For Woo
TTITLE3=Forgot About Dre
TTITLE4=Interlude #2
TTITLE5=No Diggity
TTITLE6=The Jam
TTITLE7=Who Am I
TTITLE8=The Jam Part II
TTITLE9=I'd Rather Be With You
TTITLE10=Curtis
TTITLE11=Still D.R.E.
TTITLE12=The Jam Part III
TTITLE13=My Name Is
TTITLE14=Interlude #3
TTITLE15=Guilty Conscience
TTITLE16=Interlude #4
TTITLE17=Nuthin' But A "G" Thang
TTITLE18=Interlude #5
TTITLE19=Let Me Ride
TTITLE20=The Edge
TTITLE21=Next Episode
TTITLE22=Peace
EXTD=
EXTT0=
EXTT1=
EXTT2=
EXTT3=
EXTT4=
EXTT5=
EXTT6=
EXTT7=
EXTT8=
EXTT9=
EXTT10=
EXTT11=
EXTT12=
EXTT13=
EXTT14=
EXTT15=
EXTT16=
EXTT17=
EXTT18=
EXTT19=
EXTT20=
EXTT21=
EXTT22=
PLAYORDER=
